<mxfile host="app.diagrams.net" agent="Mozilla/5.0 (Windows NT 10.0; Win64; x64) AppleWebKit/537.36 (KHTML, like Gecko) Chrome/129.0.0.0 Safari/537.36" version="24.7.16">
  <diagram name="Page-1" id="JpV5LTgbKMOXTESV9FiV">
    <mxGraphModel dx="1750" dy="1020" grid="1" gridSize="10" guides="1" tooltips="1" connect="1" arrows="1" fold="1" page="1" pageScale="1" pageWidth="850" pageHeight="1100" math="0" shadow="0">
      <root>
        <mxCell id="0" />
        <mxCell id="1" parent="0" />
        <mxCell id="lQlvCfC8ZC_olgcm3rux-1" value="&lt;p style=&quot;margin:0px;margin-top:4px;text-align:center;&quot;&gt;&lt;b&gt;Locations&lt;/b&gt;&lt;/p&gt;&lt;hr size=&quot;1&quot; style=&quot;border-style:solid;&quot;&gt;&lt;p style=&quot;margin:0px;margin-left:4px;&quot;&gt;- _item_in_location: Inventory&lt;/p&gt;&lt;hr size=&quot;1&quot; style=&quot;border-style:solid;&quot;&gt;&lt;p style=&quot;margin:0px;margin-left:4px;&quot;&gt;+ Locations(string name, string desc)&lt;/p&gt;&lt;p style=&quot;margin:0px;margin-left:4px;&quot;&gt;&lt;br&gt;&lt;/p&gt;&lt;p style=&quot;margin:0px;margin-left:4px;&quot;&gt;+ Locate(string id): GameObject&lt;/p&gt;&lt;p style=&quot;margin:0px;margin-left:4px;&quot;&gt;+ ItemInLocation: &amp;lt;&amp;lt;readonly property&amp;gt;&amp;gt;&lt;/p&gt;&lt;p style=&quot;margin:0px;margin-left:4px;&quot;&gt;+ FullDescription: string&amp;nbsp;&lt;/p&gt;&lt;p style=&quot;margin:0px;margin-left:4px;&quot;&gt;&amp;lt;&amp;lt;readonly, override property&amp;gt;&amp;gt;&lt;/p&gt;" style="verticalAlign=top;align=left;overflow=fill;html=1;whiteSpace=wrap;" vertex="1" parent="1">
          <mxGeometry x="330" y="320" width="230" height="160" as="geometry" />
        </mxCell>
        <mxCell id="lQlvCfC8ZC_olgcm3rux-2" value="&lt;p style=&quot;margin:0px;margin-top:4px;text-align:center;&quot;&gt;&lt;b&gt;GameObject&lt;/b&gt;&lt;/p&gt;&lt;hr size=&quot;1&quot; style=&quot;border-style:solid;&quot;&gt;&lt;p style=&quot;margin:0px;margin-left:4px;&quot;&gt;&amp;nbsp;&lt;/p&gt;&lt;hr size=&quot;1&quot; style=&quot;border-style:solid;&quot;&gt;&lt;p style=&quot;margin:0px;margin-left:4px;&quot;&gt;&amp;nbsp;&lt;/p&gt;" style="verticalAlign=top;align=left;overflow=fill;html=1;whiteSpace=wrap;" vertex="1" parent="1">
          <mxGeometry x="80" y="357.5" width="160" height="85" as="geometry" />
        </mxCell>
        <mxCell id="lQlvCfC8ZC_olgcm3rux-3" value="" style="endArrow=block;endSize=16;endFill=0;html=1;rounded=0;fontSize=12;curved=1;entryX=0;entryY=0.5;entryDx=0;entryDy=0;exitX=1;exitY=0.5;exitDx=0;exitDy=0;" edge="1" parent="1" source="lQlvCfC8ZC_olgcm3rux-2" target="lQlvCfC8ZC_olgcm3rux-1">
          <mxGeometry width="160" relative="1" as="geometry">
            <mxPoint x="40" y="300" as="sourcePoint" />
            <mxPoint x="200" y="300" as="targetPoint" />
          </mxGeometry>
        </mxCell>
        <mxCell id="lQlvCfC8ZC_olgcm3rux-5" value="" style="endArrow=block;endSize=16;endFill=0;html=1;rounded=0;fontSize=12;curved=1;entryX=1;entryY=0.5;entryDx=0;entryDy=0;exitX=0;exitY=0.5;exitDx=0;exitDy=0;" edge="1" parent="1" target="lQlvCfC8ZC_olgcm3rux-1">
          <mxGeometry width="160" relative="1" as="geometry">
            <mxPoint x="660" y="400" as="sourcePoint" />
            <mxPoint x="340" y="410" as="targetPoint" />
          </mxGeometry>
        </mxCell>
        <mxCell id="lQlvCfC8ZC_olgcm3rux-6" value="&lt;p style=&quot;margin:0px;margin-top:4px;text-align:center;&quot;&gt;&lt;b&gt;Player&lt;/b&gt;&lt;/p&gt;&lt;hr size=&quot;1&quot; style=&quot;border-style:solid;&quot;&gt;&lt;p style=&quot;margin:0px;margin-left:4px;&quot;&gt;- _inventory: Inventory&lt;/p&gt;&lt;p style=&quot;margin:0px;margin-left:4px;&quot;&gt;- _location: Locations&lt;/p&gt;&lt;hr size=&quot;1&quot; style=&quot;border-style:solid;&quot;&gt;&lt;p style=&quot;margin:0px;margin-left:4px;&quot;&gt;+ Player(string name, string desc)&lt;/p&gt;&lt;p style=&quot;margin:0px;margin-left:4px;&quot;&gt;&lt;br&gt;&lt;/p&gt;&lt;p style=&quot;margin:0px;margin-left:4px;&quot;&gt;+ Locate(string id): GameObject&lt;/p&gt;&lt;p style=&quot;margin:0px;margin-left:4px;&quot;&gt;+ FullDescription: string &amp;lt;&amp;lt;readonly, override property&amp;gt;&amp;gt;&lt;/p&gt;&lt;p style=&quot;margin:0px;margin-left:4px;&quot;&gt;+ Inventory: Inventory &amp;lt;&amp;lt;readonly property&amp;gt;&amp;gt;&lt;/p&gt;&lt;p style=&quot;margin:0px;margin-left:4px;&quot;&gt;+ Location: Locations &amp;lt;&amp;lt;property&amp;gt;&amp;gt;&lt;/p&gt;&lt;p style=&quot;margin:0px;margin-left:4px;&quot;&gt;&lt;br&gt;&lt;/p&gt;&lt;p style=&quot;margin:0px;margin-left:4px;&quot;&gt;&lt;br&gt;&lt;/p&gt;" style="verticalAlign=top;align=left;overflow=fill;html=1;whiteSpace=wrap;" vertex="1" parent="1">
          <mxGeometry x="292.5" y="620" width="305" height="200" as="geometry" />
        </mxCell>
        <mxCell id="lQlvCfC8ZC_olgcm3rux-7" value="" style="endArrow=open;endFill=1;endSize=12;html=1;rounded=0;fontSize=12;curved=1;entryX=0.5;entryY=1;entryDx=0;entryDy=0;exitX=0.5;exitY=0;exitDx=0;exitDy=0;" edge="1" parent="1" source="lQlvCfC8ZC_olgcm3rux-6" target="lQlvCfC8ZC_olgcm3rux-1">
          <mxGeometry width="160" relative="1" as="geometry">
            <mxPoint x="380" y="490" as="sourcePoint" />
            <mxPoint x="540" y="490" as="targetPoint" />
          </mxGeometry>
        </mxCell>
        <mxCell id="lQlvCfC8ZC_olgcm3rux-8" value="" style="html=1;points=[[0,0,0,0,5],[0,1,0,0,-5],[1,0,0,0,5],[1,1,0,0,-5]];perimeter=orthogonalPerimeter;outlineConnect=0;targetShapes=umlLifeline;portConstraint=eastwest;newEdgeStyle={&quot;curved&quot;:0,&quot;rounded&quot;:0};" vertex="1" parent="1">
          <mxGeometry x="120" y="1060" width="10" height="540" as="geometry" />
        </mxCell>
        <mxCell id="lQlvCfC8ZC_olgcm3rux-9" value="Locate(&quot;sword&quot;)" style="html=1;verticalAlign=bottom;endArrow=block;curved=0;rounded=0;fontSize=12;startSize=8;endSize=8;" edge="1" parent="1" source="lQlvCfC8ZC_olgcm3rux-8">
          <mxGeometry relative="1" as="geometry">
            <mxPoint x="200" y="1065" as="sourcePoint" />
            <mxPoint x="280" y="1100" as="targetPoint" />
          </mxGeometry>
        </mxCell>
        <mxCell id="lQlvCfC8ZC_olgcm3rux-10" value="sword" style="html=1;verticalAlign=bottom;endArrow=open;dashed=1;endSize=8;curved=0;rounded=0;fontSize=12;" edge="1" parent="1">
          <mxGeometry relative="1" as="geometry">
            <mxPoint x="292.5" y="1320" as="targetPoint" />
            <mxPoint x="437.5" y="1320" as="sourcePoint" />
          </mxGeometry>
        </mxCell>
        <mxCell id="lQlvCfC8ZC_olgcm3rux-11" value="" style="html=1;points=[[0,0,0,0,5],[0,1,0,0,-5],[1,0,0,0,5],[1,1,0,0,-5]];perimeter=orthogonalPerimeter;outlineConnect=0;targetShapes=umlLifeline;portConstraint=eastwest;newEdgeStyle={&quot;curved&quot;:0,&quot;rounded&quot;:0};" vertex="1" parent="1">
          <mxGeometry x="282.5" y="1060" width="10" height="540" as="geometry" />
        </mxCell>
        <mxCell id="lQlvCfC8ZC_olgcm3rux-12" value="User" style="html=1;whiteSpace=wrap;" vertex="1" parent="1">
          <mxGeometry x="70" y="980" width="110" height="50" as="geometry" />
        </mxCell>
        <mxCell id="lQlvCfC8ZC_olgcm3rux-13" value="Player" style="html=1;whiteSpace=wrap;" vertex="1" parent="1">
          <mxGeometry x="232.5" y="980" width="110" height="50" as="geometry" />
        </mxCell>
        <mxCell id="lQlvCfC8ZC_olgcm3rux-14" value="" style="html=1;points=[[0,0,0,0,5],[0,1,0,0,-5],[1,0,0,0,5],[1,1,0,0,-5]];perimeter=orthogonalPerimeter;outlineConnect=0;targetShapes=umlLifeline;portConstraint=eastwest;newEdgeStyle={&quot;curved&quot;:0,&quot;rounded&quot;:0};" vertex="1" parent="1">
          <mxGeometry x="437.5" y="1060" width="10" height="540" as="geometry" />
        </mxCell>
        <mxCell id="lQlvCfC8ZC_olgcm3rux-17" value="" style="html=1;points=[[0,0,0,0,5],[0,1,0,0,-5],[1,0,0,0,5],[1,1,0,0,-5]];perimeter=orthogonalPerimeter;outlineConnect=0;targetShapes=umlLifeline;portConstraint=eastwest;newEdgeStyle={&quot;curved&quot;:0,&quot;rounded&quot;:0};" vertex="1" parent="1">
          <mxGeometry x="600" y="1060" width="10" height="540" as="geometry" />
        </mxCell>
        <mxCell id="lQlvCfC8ZC_olgcm3rux-18" value="Inventory" style="html=1;whiteSpace=wrap;" vertex="1" parent="1">
          <mxGeometry x="387.5" y="980" width="110" height="50" as="geometry" />
        </mxCell>
        <mxCell id="lQlvCfC8ZC_olgcm3rux-19" value="Item" style="html=1;whiteSpace=wrap;" vertex="1" parent="1">
          <mxGeometry x="550" y="980" width="110" height="50" as="geometry" />
        </mxCell>
        <mxCell id="lQlvCfC8ZC_olgcm3rux-20" value="" style="html=1;points=[[0,0,0,0,5],[0,1,0,0,-5],[1,0,0,0,5],[1,1,0,0,-5]];perimeter=orthogonalPerimeter;outlineConnect=0;targetShapes=umlLifeline;portConstraint=eastwest;newEdgeStyle={&quot;curved&quot;:0,&quot;rounded&quot;:0};" vertex="1" parent="1">
          <mxGeometry x="760" y="1060" width="10" height="540" as="geometry" />
        </mxCell>
        <mxCell id="lQlvCfC8ZC_olgcm3rux-21" value="Locations" style="html=1;whiteSpace=wrap;" vertex="1" parent="1">
          <mxGeometry x="710" y="980" width="110" height="50" as="geometry" />
        </mxCell>
        <mxCell id="lQlvCfC8ZC_olgcm3rux-22" value="Fetch(&quot;sword&quot;)" style="html=1;verticalAlign=bottom;endArrow=block;curved=0;rounded=0;fontSize=12;startSize=8;endSize=8;" edge="1" parent="1">
          <mxGeometry relative="1" as="geometry">
            <mxPoint x="292.5" y="1140" as="sourcePoint" />
            <mxPoint x="442.5" y="1140" as="targetPoint" />
          </mxGeometry>
        </mxCell>
        <mxCell id="lQlvCfC8ZC_olgcm3rux-23" value="AreYou &quot;sword&quot;" style="html=1;verticalAlign=bottom;endArrow=block;curved=0;rounded=0;fontSize=12;startSize=8;endSize=8;" edge="1" parent="1">
          <mxGeometry relative="1" as="geometry">
            <mxPoint x="447.5" y="1200" as="sourcePoint" />
            <mxPoint x="597.5" y="1200" as="targetPoint" />
          </mxGeometry>
        </mxCell>
        <mxCell id="lQlvCfC8ZC_olgcm3rux-24" value="No / False" style="html=1;verticalAlign=bottom;endArrow=open;dashed=1;endSize=8;curved=0;rounded=0;fontSize=12;" edge="1" parent="1">
          <mxGeometry relative="1" as="geometry">
            <mxPoint x="447.5" y="1260" as="targetPoint" />
            <mxPoint x="593" y="1260" as="sourcePoint" />
          </mxGeometry>
        </mxCell>
        <mxCell id="lQlvCfC8ZC_olgcm3rux-25" value="Locate(&quot;location&quot;)" style="html=1;verticalAlign=bottom;endArrow=block;curved=0;rounded=0;fontSize=12;startSize=8;endSize=8;" edge="1" parent="1">
          <mxGeometry relative="1" as="geometry">
            <mxPoint x="132.5" y="1400" as="sourcePoint" />
            <mxPoint x="282.5" y="1400" as="targetPoint" />
          </mxGeometry>
        </mxCell>
        <mxCell id="lQlvCfC8ZC_olgcm3rux-26" value="Fetch(&quot;location&quot;)" style="html=1;verticalAlign=bottom;endArrow=block;curved=0;rounded=0;fontSize=12;startSize=8;endSize=8;" edge="1" parent="1" target="lQlvCfC8ZC_olgcm3rux-20">
          <mxGeometry relative="1" as="geometry">
            <mxPoint x="292.5" y="1440" as="sourcePoint" />
            <mxPoint x="442.5" y="1440" as="targetPoint" />
          </mxGeometry>
        </mxCell>
        <mxCell id="lQlvCfC8ZC_olgcm3rux-27" value="location" style="html=1;verticalAlign=bottom;endArrow=open;dashed=1;endSize=8;curved=0;rounded=0;fontSize=12;" edge="1" parent="1" source="lQlvCfC8ZC_olgcm3rux-20">
          <mxGeometry relative="1" as="geometry">
            <mxPoint x="292.5" y="1520" as="targetPoint" />
            <mxPoint x="437.5" y="1520" as="sourcePoint" />
          </mxGeometry>
        </mxCell>
        <mxCell id="lQlvCfC8ZC_olgcm3rux-28" value="&amp;lt;&amp;lt;implements&amp;gt;&amp;gt;" style="endArrow=block;endSize=16;endFill=0;html=1;rounded=0;fontSize=12;curved=1;entryX=0.5;entryY=1;entryDx=0;entryDy=0;exitX=1;exitY=0.5;exitDx=0;exitDy=0;" edge="1" parent="1" source="lQlvCfC8ZC_olgcm3rux-6" target="lQlvCfC8ZC_olgcm3rux-29">
          <mxGeometry width="160" relative="1" as="geometry">
            <mxPoint x="410" y="700" as="sourcePoint" />
            <mxPoint x="740" y="442.5" as="targetPoint" />
          </mxGeometry>
        </mxCell>
        <mxCell id="lQlvCfC8ZC_olgcm3rux-29" value="&lt;p style=&quot;margin:0px;margin-top:4px;text-align:center;&quot;&gt;&lt;i&gt;&amp;lt;&amp;lt;Interface&amp;gt;&amp;gt;&lt;/i&gt;&lt;br&gt;&lt;b&gt;IHaveInventory&lt;/b&gt;&lt;/p&gt;&lt;hr size=&quot;1&quot; style=&quot;border-style:solid;&quot;&gt;&lt;p style=&quot;margin:0px;margin-left:4px;&quot;&gt;&amp;nbsp;&lt;/p&gt;&lt;hr size=&quot;1&quot; style=&quot;border-style:solid;&quot;&gt;&lt;p style=&quot;margin:0px;margin-left:4px;&quot;&gt;+ Locate(string id): GameObject&lt;/p&gt;&lt;p style=&quot;margin:0px;margin-left:4px;&quot;&gt;&lt;br&gt;&lt;/p&gt;&lt;p style=&quot;margin:0px;margin-left:4px;&quot;&gt;+ Name: String &amp;lt;&amp;lt;readonly, property&amp;gt;&amp;gt;&lt;/p&gt;" style="verticalAlign=top;align=left;overflow=fill;html=1;whiteSpace=wrap;" vertex="1" parent="1">
          <mxGeometry x="660" y="302.5" width="220" height="140" as="geometry" />
        </mxCell>
      </root>
    </mxGraphModel>
  </diagram>
</mxfile>
